<svg width="24" height="25" viewBox="0 0 24 25" fill="none" xmlns="http://www.w3.org/2000/svg">
<path d="M5.05499 4.12337C4.98913 4.04913 4.90918 3.9887 4.81979 3.94558C4.7304 3.90246 4.63334 3.87751 4.53423 3.87218C4.43513 3.86685 4.33595 3.88124 4.24245 3.91452C4.14895 3.9478 4.06298 3.9993 3.98953 4.06605C3.91608 4.1328 3.85661 4.21347 3.81457 4.30337C3.77252 4.39327 3.74874 4.49062 3.7446 4.58979C3.74045 4.68895 3.75603 4.78795 3.79043 4.88104C3.82483 4.97414 3.87737 5.05948 3.94499 5.13212L5.74874 7.11681C2.34374 9.2065 0.879366 12.4277 0.814679 12.574C0.772035 12.6699 0.75 12.7737 0.75 12.8787C0.75 12.9837 0.772035 13.0875 0.814679 13.1834C0.847491 13.2574 1.64155 15.0181 3.40687 16.7834C5.75905 19.1346 8.72999 20.3777 12 20.3777C13.6806 20.3873 15.3442 20.0413 16.8816 19.3624L18.9441 21.6321C19.0099 21.7064 19.0899 21.7668 19.1793 21.8099C19.2686 21.853 19.3657 21.878 19.4648 21.8833C19.5639 21.8887 19.6631 21.8743 19.7566 21.841C19.8501 21.8077 19.9361 21.7562 20.0095 21.6894C20.083 21.6227 20.1424 21.542 20.1845 21.4521C20.2265 21.3622 20.2503 21.2649 20.2544 21.1657C20.2586 21.0665 20.243 20.9676 20.2086 20.8745C20.1742 20.7814 20.1217 20.696 20.0541 20.6234L5.05499 4.12337ZM9.49218 11.2334L13.3987 15.5318C12.8105 15.8413 12.136 15.9466 11.4814 15.8313C10.8268 15.7159 10.229 15.3864 9.78189 14.8945C9.33481 14.4026 9.06377 13.7761 9.01134 13.1135C8.9589 12.4508 9.12803 11.7895 9.49218 11.2334ZM12 18.8777C9.11437 18.8777 6.59343 17.8287 4.50655 15.7606C3.64997 14.9093 2.92145 13.9382 2.34374 12.8777C2.78343 12.0537 4.18687 9.74744 6.7828 8.24837L8.4703 10.0999C7.81699 10.9367 7.48052 11.9774 7.52036 13.0382C7.56021 14.099 7.97379 15.1116 8.68802 15.897C9.40225 16.6823 10.3711 17.1899 11.4234 17.33C12.4757 17.4701 13.5436 17.2336 14.4384 16.6624L15.8194 18.1812C14.6006 18.6488 13.3053 18.885 12 18.8777ZM12.5625 9.93119C12.3671 9.89389 12.1944 9.78049 12.0826 9.61592C11.9708 9.45136 11.9289 9.24912 11.9662 9.05369C12.0035 8.85825 12.1169 8.68564 12.2815 8.57382C12.4461 8.46201 12.6483 8.42014 12.8437 8.45744C13.7996 8.64275 14.67 9.13211 15.325 9.85252C15.98 10.5729 16.3846 11.4858 16.4784 12.4549C16.4969 12.653 16.436 12.8503 16.3091 13.0034C16.1822 13.1565 15.9996 13.253 15.8016 13.2715C15.7781 13.2729 15.7547 13.2729 15.7312 13.2715C15.5438 13.2723 15.3628 13.2029 15.224 13.0769C15.0852 12.9509 14.9986 12.7775 14.9812 12.5909C14.9181 11.9462 14.6486 11.3392 14.2128 10.86C13.7771 10.3808 13.1982 10.0551 12.5625 9.93119ZM23.1825 13.1834C23.1431 13.2715 22.1934 15.3743 20.055 17.2896C19.9819 17.3572 19.8961 17.4095 19.8027 17.4435C19.7092 17.4776 19.6099 17.4927 19.5105 17.488C19.4111 17.4833 19.3136 17.4588 19.2238 17.4161C19.1339 17.3734 19.0535 17.3132 18.9871 17.239C18.9208 17.1649 18.8698 17.0783 18.8373 16.9843C18.8047 16.8903 18.7912 16.7907 18.7975 16.6914C18.8037 16.5921 18.8297 16.4951 18.8739 16.4059C18.918 16.3168 18.9795 16.2373 19.0547 16.1721C20.1038 15.2296 20.9851 14.1156 21.6609 12.8777C21.0819 11.8163 20.3518 10.8446 19.4934 9.99306C17.4066 7.92681 14.8856 6.87775 12 6.87775C11.392 6.87701 10.7849 6.92623 10.185 7.02494C10.0874 7.04219 9.98741 7.03994 9.89073 7.01832C9.79404 6.9967 9.70259 6.95614 9.62167 6.89898C9.54074 6.84181 9.47195 6.76918 9.41925 6.68528C9.36656 6.60138 9.33101 6.50787 9.31466 6.41015C9.29832 6.31243 9.30149 6.21244 9.32401 6.11596C9.34652 6.01947 9.38793 5.92841 9.44584 5.84802C9.50375 5.76763 9.57702 5.69951 9.6614 5.6476C9.74579 5.59568 9.83963 5.561 9.93749 5.54556C10.6192 5.433 11.309 5.37687 12 5.37775C15.27 5.37775 18.2409 6.62087 20.5931 8.97306C22.3584 10.7384 23.1525 12.4999 23.1853 12.574C23.2279 12.6699 23.25 12.7737 23.25 12.8787C23.25 12.9837 23.2279 13.0875 23.1853 13.1834H23.1825Z" fill="#A0A4B0"/>
</svg>
