<svg width="24" height="24" viewBox="0 0 24 24" fill="none" xmlns="http://www.w3.org/2000/svg">
<path d="M14.97 5.92027C14.9028 5.67421 14.741 5.46467 14.52 5.33731C14.299 5.20994 14.0366 5.17507 13.79 5.24027L10.39 6.15027L5.95 2.03027L4.72 2.36027L7.38 6.95027L4.19 7.80027L2.93 6.82027L2 7.07027L3.66 9.95027L14.28 7.11027C14.8 6.96027 15.1 6.43027 14.97 5.92027ZM21 10.0003L20 12.0003H15L14 10.0003L15 9.00027H17V7.00027H18V9.00027H20L21 10.0003ZM22 20.0003V22.0003H2V20.0003H15V13.0003H20V20.0003H22Z" fill="white"/>
</svg>
