<svg width="18" height="19" viewBox="0 0 18 19" fill="none" xmlns="http://www.w3.org/2000/svg">
<path d="M15 4.17871V17.6787C15 17.8776 14.921 18.0684 14.7803 18.209C14.6397 18.3497 14.4489 18.4287 14.25 18.4287H0.75C0.551088 18.4287 0.360322 18.3497 0.21967 18.209C0.0790178 18.0684 0 17.8776 0 17.6787V4.17871C0 3.9798 0.0790178 3.78903 0.21967 3.64838C0.360322 3.50773 0.551088 3.42871 0.75 3.42871H14.25C14.4489 3.42871 14.6397 3.50773 14.7803 3.64838C14.921 3.78903 15 3.9798 15 4.17871ZM17.25 0.428711H3.75C3.55109 0.428711 3.36032 0.507729 3.21967 0.648381C3.07902 0.789033 3 0.979799 3 1.17871C3 1.37762 3.07902 1.56839 3.21967 1.70904C3.36032 1.84969 3.55109 1.92871 3.75 1.92871H16.5V14.6787C16.5 14.8776 16.579 15.0684 16.7197 15.209C16.8603 15.3497 17.0511 15.4287 17.25 15.4287C17.4489 15.4287 17.6397 15.3497 17.7803 15.209C17.921 15.0684 18 14.8776 18 14.6787V1.17871C18 0.979799 17.921 0.789033 17.7803 0.648381C17.6397 0.507729 17.4489 0.428711 17.25 0.428711Z" fill="#212D3F"/>
</svg>
