<svg width="41" height="41" viewBox="0 0 41 41" fill="none" xmlns="http://www.w3.org/2000/svg">
<path d="M40.4275 20.2147C40.4275 9.05107 31.3774 0.000976562 20.2137 0.000976562C9.0501 0.000976562 0 9.05107 0 20.2147C0 29.6942 6.52661 37.6487 15.3309 39.8334V26.392H11.1628V20.2147H15.3309V17.553C15.3309 10.673 18.4446 7.4841 25.1993 7.4841C26.48 7.4841 28.6898 7.73556 29.5937 7.98621V13.5854C29.1167 13.5353 28.2879 13.5102 27.2586 13.5102C23.9444 13.5102 22.6636 14.7659 22.6636 18.03V20.2147H29.2663L28.1319 26.392H22.6636V40.2805C32.6727 39.0717 40.4283 30.5496 40.4283 20.2147H40.4275Z" fill="#0866FF"/>
</svg>
