<svg width="41" height="40" viewBox="0 0 41 40" fill="none" xmlns="http://www.w3.org/2000/svg">
<path d="M36.6443 7.85817L32.6856 6.97851C32.3527 6.90411 32.0081 6.9043 31.6753 6.97908C31.3425 7.05385 31.0291 7.20145 30.7566 7.41187L18.799 16.3573L15.9274 16.2279C15.7629 16.2222 15.6008 16.2697 15.464 16.3639C15.3272 16.4581 15.2226 16.5941 15.165 16.7528C15.1073 16.9115 15.0996 17.0848 15.1428 17.2483C15.186 17.4117 15.278 17.5571 15.4058 17.6638L18.202 19.9471C18.2481 19.9853 18.3028 20.0107 18.3612 20.0209C18.4195 20.0311 18.4793 20.0257 18.535 20.0053C19.3331 19.6884 22.3052 18.0649 25.8177 16.0791L26.5215 23.5239C26.5274 23.5884 26.5504 23.65 26.5879 23.702C26.6253 23.7541 26.6759 23.7946 26.7341 23.8192C26.7923 23.8438 26.8559 23.8516 26.9181 23.8418C26.9803 23.8319 27.0387 23.8048 27.087 23.7633L28.6579 22.4179C28.7439 22.3437 28.8017 22.2406 28.8212 22.1268L30.3105 13.5307C32.8239 12.0948 35.2242 10.7041 36.9145 9.72099C37.0899 9.62274 37.2317 9.47136 37.3208 9.28735C37.4098 9.10335 37.4417 8.89563 37.4122 8.69232C37.3828 8.48901 37.2933 8.29994 37.1559 8.15073C37.0185 8.00153 36.8399 7.8994 36.6443 7.85817Z" fill="#04B0C0"/>
<path d="M17.642 33.8425C17.3225 33.7821 17.2616 33.698 16.5515 32.3126C16.1717 31.5688 15.8442 30.9834 15.8003 30.9729C15.7614 30.9612 15.488 30.9211 15.195 30.8855C14.902 30.85 14.4093 30.7573 14.1023 30.6836L13.5419 30.5446L12.5799 31.4849C11.4672 32.5789 11.3655 32.654 11.0574 32.6426C10.8752 32.6382 10.6509 32.5196 9.70305 31.9382C8.21049 31.0177 8.17909 30.994 8.09826 30.6459C8.03792 30.3861 8.0511 30.3314 8.49901 28.9831L8.96237 27.5899L8.79094 27.3867C8.52603 27.0709 8.1142 26.4791 7.85977 26.0524C7.73256 25.8391 7.62429 25.6627 7.61824 25.6589C7.61218 25.6551 6.96762 25.644 6.18356 25.6341C5.36397 25.6273 4.69406 25.5962 4.60784 25.5594C4.28828 25.4318 4.24963 25.3322 3.8819 23.7489C3.51645 22.1754 3.50614 22.0641 3.71119 21.8101C3.78255 21.7161 4.22728 21.4687 5.10469 21.0334C5.80942 20.6794 6.40832 20.3602 6.42983 20.3191C6.45248 20.2828 6.49197 20.0516 6.51821 19.8079C6.54332 19.5594 6.63398 19.0581 6.71871 18.6872L6.87348 18.0161L5.93093 17.0564C4.84044 15.95 4.76512 15.8486 4.77657 15.5412C4.78094 15.3594 4.90623 15.1187 5.55931 14.0742C5.98474 13.387 6.39663 12.7753 6.47483 12.7107C6.66711 12.5578 6.88067 12.5187 7.14498 12.5868C7.34727 12.633 9.09431 13.2002 9.61352 13.3849L9.8215 13.4556L10.2767 13.0973C10.531 12.8991 10.9719 12.5905 11.2586 12.4209L11.7766 12.1101L11.7943 10.6701C11.806 9.42772 11.8221 9.20707 11.9104 9.05236C11.9659 8.95689 12.0682 8.84026 12.1302 8.79495C12.2069 8.74623 12.8362 8.5801 13.7009 8.38019C15.057 8.0667 15.1614 8.04775 15.3648 8.09886C15.4854 8.1278 15.6284 8.20838 15.6859 8.27773C15.7483 8.34594 16.0543 8.90536 16.369 9.52475C16.6886 10.143 16.9855 10.7303 17.0389 10.8265C17.0862 10.9188 17.1596 10.9897 17.199 10.9806C17.2776 10.9624 18.0746 11.0726 18.5525 11.1687L18.8988 11.2333L17.5176 13.913L17.2885 13.9298C15.1029 14.1045 13.9796 14.3952 12.9001 15.0528C10.7129 16.3796 9.45988 18.7199 9.54725 21.3029C9.566 21.9856 9.85854 23.1782 10.1487 23.8033C10.7623 25.1077 11.6489 26.1166 12.8207 26.8374C14.0107 27.5695 15.2808 27.9112 16.715 27.8896C17.4102 27.8735 18.6114 27.6062 19.2304 27.3288C20.5768 26.7283 21.5978 25.8414 22.3592 24.6169C22.9697 23.6339 23.2766 22.7262 23.3844 21.5856L26.097 23.9026L27.0804 24.9046C27.9352 25.7762 28.0695 25.9311 28.1416 26.1521C28.203 26.3496 28.2087 26.4413 28.1597 26.5869C28.1262 26.6876 27.7506 27.322 27.3266 27.9933C26.5127 29.2816 26.4429 29.3598 26.0573 29.3714C25.9741 29.37 25.2863 29.1726 24.5236 28.9202L23.1403 28.4704L22.6998 28.8253C22.4543 29.0163 22.0172 29.3188 21.7266 29.4944L21.1999 29.8125L21.1789 31.2378C21.1701 32.0249 21.1322 32.731 21.099 32.8109C20.9711 33.1298 20.8714 33.1683 19.2696 33.5386C18.1629 33.7893 17.7664 33.8654 17.642 33.8425Z" fill="#04B0C0"/>
</svg>
