<svg width="20" height="21" viewBox="0 0 20 21" fill="none" xmlns="http://www.w3.org/2000/svg">
<path d="M19.8055 8.91943H19V8.87793H10V12.8779H15.6515C14.827 15.2064 12.6115 16.8779 10 16.8779C6.6865 16.8779 4 14.1914 4 10.8779C4 7.56443 6.6865 4.87793 10 4.87793C11.5295 4.87793 12.921 5.45493 13.9805 6.39743L16.809 3.56893C15.023 1.90443 12.634 0.87793 10 0.87793C4.4775 0.87793 0 5.35543 0 10.8779C0 16.4004 4.4775 20.8779 10 20.8779C15.5225 20.8779 20 16.4004 20 10.8779C20 10.2074 19.931 9.55293 19.8055 8.91943Z" fill="#FFC107"/>
<path d="M1.15332 6.22343L4.43882 8.63293C5.32782 6.43193 7.48082 4.87793 10.0003 4.87793C11.5298 4.87793 12.9213 5.45493 13.9808 6.39743L16.8093 3.56893C15.0233 1.90443 12.6343 0.87793 10.0003 0.87793C6.15932 0.87793 2.82832 3.04643 1.15332 6.22343Z" fill="#FF3D00"/>
<path d="M10.0004 20.8783C12.5834 20.8783 14.9304 19.8898 16.7049 18.2823L13.6099 15.6633C12.5722 16.4525 11.3041 16.8793 10.0004 16.8783C7.3994 16.8783 5.1909 15.2198 4.3589 12.9053L1.0979 15.4178C2.7529 18.6563 6.1139 20.8783 10.0004 20.8783Z" fill="#4CAF50"/>
<path d="M19.8055 8.91943H19V8.87793H10V12.8779H15.6515C15.2571 13.9861 14.5467 14.9545 13.608 15.6634L13.6095 15.6624L16.7045 18.2814C16.4855 18.4804 20 15.8779 20 10.8779C20 10.2074 19.931 9.55293 19.8055 8.91943Z" fill="#1976D2"/>
</svg>
