<svg width="22" height="18" viewBox="0 0 22 18" fill="none" xmlns="http://www.w3.org/2000/svg">
<path d="M8 1.33798C8.97004 1.02979 9.98218 0.874597 11 0.877984C15.182 0.877984 18.028 3.37798 19.725 5.58198C20.575 6.68798 21 7.23898 21 8.87798C21 10.518 20.575 11.069 19.725 12.174C18.028 14.378 15.182 16.878 11 16.878C6.818 16.878 3.972 14.378 2.275 12.174C1.425 11.07 1 10.517 1 8.87798C1 7.23798 1.425 6.68698 2.275 5.58198C2.7935 4.90481 3.37074 4.2747 4 3.69898" stroke="#A0A4B0" stroke-width="1.25" stroke-linecap="round"/>
<path d="M14 8.87793C14 9.67358 13.6839 10.4366 13.1213 10.9993C12.5587 11.5619 11.7956 11.8779 11 11.8779C10.2044 11.8779 9.44129 11.5619 8.87868 10.9993C8.31607 10.4366 8 9.67358 8 8.87793C8 8.08228 8.31607 7.31922 8.87868 6.75661C9.44129 6.194 10.2044 5.87793 11 5.87793C11.7956 5.87793 12.5587 6.194 13.1213 6.75661C13.6839 7.31922 14 8.08228 14 8.87793Z" stroke="#A0A4B0" stroke-width="1.25"/>
</svg>
