<svg width="42" height="41" viewBox="0 0 42 41" fill="none" xmlns="http://www.w3.org/2000/svg">
<g clip-path="url(#clip0_1_16626)">
<path d="M21.0687 3.64103C26.4696 3.64103 27.1092 3.66472 29.2332 3.75947C31.2072 3.84632 32.2731 4.17796 32.9838 4.45432C33.9234 4.81753 34.6025 5.25971 35.3052 5.96245C36.0158 6.67309 36.4501 7.34425 36.8133 8.28387C37.0897 8.99451 37.4213 10.0684 37.5082 12.0345C37.6029 14.1664 37.6266 14.806 37.6266 20.1989C37.6266 25.5998 37.6029 26.2394 37.5082 28.3634C37.4213 30.3374 37.0897 31.4033 36.8133 32.114C36.4501 33.0536 36.0079 33.7327 35.3052 34.4354C34.5946 35.146 33.9234 35.5803 32.9838 35.9435C32.2731 36.2199 31.1993 36.5515 29.2332 36.6384C27.1013 36.7331 26.4617 36.7568 21.0687 36.7568C15.6679 36.7568 15.0283 36.7331 12.9043 36.6384C10.9303 36.5515 9.86431 36.2199 9.15367 35.9435C8.21405 35.5803 7.53499 35.1381 6.83225 34.4354C6.12161 33.7248 5.68733 33.0536 5.32411 32.114C5.04775 31.4033 4.71612 30.3295 4.62927 28.3634C4.53451 26.2315 4.51083 25.5919 4.51083 20.1989C4.51083 14.7981 4.53451 14.1585 4.62927 12.0345C4.71612 10.0605 5.04775 8.99451 5.32411 8.28387C5.68733 7.34425 6.1295 6.66519 6.83225 5.96245C7.54289 5.25181 8.21405 4.81753 9.15367 4.45432C9.86431 4.17796 10.9382 3.84632 12.9043 3.75947C15.0283 3.66472 15.6679 3.64103 21.0687 3.64103ZM21.0687 0.000976562C15.581 0.000976562 14.8941 0.0246645 12.7385 0.119416C10.5907 0.214168 9.11419 0.561592 7.83504 1.05904C6.50062 1.58018 5.37149 2.26713 4.25026 3.39625C3.12113 4.51748 2.43418 5.64661 1.91304 6.97314C1.4156 8.26019 1.06817 9.72884 0.97342 11.8765C0.878668 14.0401 0.85498 14.727 0.85498 20.2147C0.85498 25.7024 0.878668 26.3894 0.97342 28.545C1.06817 30.6927 1.4156 32.1693 1.91304 33.4484C2.43418 34.7828 3.12113 35.912 4.25026 37.0332C5.37149 38.1544 6.50062 38.8493 7.82714 39.3625C9.11419 39.86 10.5828 40.2074 12.7306 40.3021C14.8862 40.3969 15.5731 40.4206 21.0608 40.4206C26.5485 40.4206 27.2355 40.3969 29.3911 40.3021C31.5388 40.2074 33.0154 39.86 34.2945 39.3625C35.621 38.8493 36.7502 38.1544 37.8714 37.0332C38.9926 35.912 39.6875 34.7828 40.2007 33.4563C40.6982 32.1693 41.0456 30.7006 41.1403 28.5529C41.2351 26.3973 41.2588 25.7103 41.2588 20.2226C41.2588 14.7349 41.2351 14.0479 41.1403 11.8923C41.0456 9.74463 40.6982 8.26808 40.2007 6.98893C39.7033 5.64661 39.0163 4.51748 37.8872 3.39625C36.766 2.27502 35.6368 1.58018 34.3103 1.06694C33.0233 0.569488 31.5546 0.222064 29.4069 0.127312C27.2434 0.0246646 26.5564 0.000976562 21.0687 0.000976562Z" fill="#B70086"/>
<path d="M21.0687 9.83105C15.3362 9.83105 10.6855 14.4818 10.6855 20.2143C10.6855 25.9468 15.3362 30.5975 21.0687 30.5975C26.8012 30.5975 31.4519 25.9468 31.4519 20.2143C31.4519 14.4818 26.8012 9.83105 21.0687 9.83105ZM21.0687 26.9496C17.3497 26.9496 14.3334 23.9333 14.3334 20.2143C14.3334 16.4953 17.3497 13.479 21.0687 13.479C24.7877 13.479 27.804 16.4953 27.804 20.2143C27.804 23.9333 24.7877 26.9496 21.0687 26.9496Z" fill="#B70086"/>
<path d="M34.2866 9.42114C34.2866 10.7635 33.197 11.8452 31.8625 11.8452C30.5202 11.8452 29.4385 10.7556 29.4385 9.42114C29.4385 8.07882 30.5281 6.99707 31.8625 6.99707C33.197 6.99707 34.2866 8.08672 34.2866 9.42114Z" fill="#B70086"/>
</g>
<defs>
<clipPath id="clip0_1_16626">
<rect width="40.4275" height="40.4275" fill="white" transform="translate(0.85498 0.000976562)"/>
</clipPath>
</defs>
</svg>
