<svg width="24" height="11" viewBox="0 0 24 11" fill="none" xmlns="http://www.w3.org/2000/svg">
<path d="M7.5 4.67871H16.5C16.6989 4.67871 16.8897 4.75773 17.0303 4.89838C17.171 5.03903 17.25 5.2298 17.25 5.42871C17.25 5.62762 17.171 5.81839 17.0303 5.95904C16.8897 6.09969 16.6989 6.17871 16.5 6.17871H7.5C7.30109 6.17871 7.11032 6.09969 6.96967 5.95904C6.82902 5.81839 6.75 5.62762 6.75 5.42871C6.75 5.2298 6.82902 5.03903 6.96967 4.89838C7.11032 4.75773 7.30109 4.67871 7.5 4.67871ZM9.75 9.17871H6C5.00544 9.17871 4.05161 8.78362 3.34835 8.08036C2.64509 7.3771 2.25 6.42327 2.25 5.42871C2.25 4.43415 2.64509 3.48032 3.34835 2.77706C4.05161 2.0738 5.00544 1.67871 6 1.67871H9.75C9.94891 1.67871 10.1397 1.59969 10.2803 1.45904C10.421 1.31839 10.5 1.12762 10.5 0.928711C10.5 0.729799 10.421 0.539033 10.2803 0.398381C10.1397 0.257729 9.94891 0.178711 9.75 0.178711H6C4.60761 0.178711 3.27226 0.731835 2.28769 1.7164C1.30312 2.70097 0.75 4.03632 0.75 5.42871C0.75 6.8211 1.30312 8.15646 2.28769 9.14102C3.27226 10.1256 4.60761 10.6787 6 10.6787H9.75C9.94891 10.6787 10.1397 10.5997 10.2803 10.459C10.421 10.3184 10.5 10.1276 10.5 9.92871C10.5 9.7298 10.421 9.53903 10.2803 9.39838C10.1397 9.25773 9.94891 9.17871 9.75 9.17871ZM18 0.178711H14.25C14.0511 0.178711 13.8603 0.257729 13.7197 0.398381C13.579 0.539033 13.5 0.729799 13.5 0.928711C13.5 1.12762 13.579 1.31839 13.7197 1.45904C13.8603 1.59969 14.0511 1.67871 14.25 1.67871H18C18.9946 1.67871 19.9484 2.0738 20.6516 2.77706C21.3549 3.48032 21.75 4.43415 21.75 5.42871C21.75 6.42327 21.3549 7.3771 20.6516 8.08036C19.9484 8.78362 18.9946 9.17871 18 9.17871H14.25C14.0511 9.17871 13.8603 9.25773 13.7197 9.39838C13.579 9.53903 13.5 9.7298 13.5 9.92871C13.5 10.1276 13.579 10.3184 13.7197 10.459C13.8603 10.5997 14.0511 10.6787 14.25 10.6787H18C19.3924 10.6787 20.7277 10.1256 21.7123 9.14102C22.6969 8.15646 23.25 6.8211 23.25 5.42871C23.25 4.03632 22.6969 2.70097 21.7123 1.7164C20.7277 0.731835 19.3924 0.178711 18 0.178711Z" fill="#A0A4B0"/>
</svg>
