<svg width="41" height="41" viewBox="0 0 41 41" fill="none" xmlns="http://www.w3.org/2000/svg">
<g clip-path="url(#clip0_1_16627)">
<path d="M20.4962 40.4285C31.66 40.4285 40.71 31.3785 40.71 20.2147C40.71 9.05098 31.66 0.000976562 20.4962 0.000976562C9.33247 0.000976562 0.282471 9.05098 0.282471 20.2147C0.282471 31.3785 9.33247 40.4285 20.4962 40.4285Z" fill="url(#paint0_linear_1_16627)"/>
<path fill-rule="evenodd" clip-rule="evenodd" d="M9.43237 20.0016C15.3251 17.4342 19.2545 15.7417 21.2206 14.9239C26.8341 12.5891 28.0006 12.1835 28.7609 12.1701C28.9281 12.1671 29.302 12.2086 29.5442 12.4051C29.7487 12.571 29.8049 12.7952 29.8318 12.9525C29.8588 13.1098 29.8923 13.4682 29.8656 13.7482C29.5614 16.9445 28.2452 24.701 27.5755 28.2809C27.2922 29.7956 26.7342 30.3035 26.1941 30.3532C25.0203 30.4613 24.1289 29.5775 22.992 28.8322C21.2129 27.666 20.2078 26.94 18.4809 25.8021C16.4852 24.4869 17.7789 23.7641 18.9163 22.5828C19.214 22.2736 24.386 17.5693 24.4861 17.1425C24.4986 17.0891 24.5102 16.8902 24.392 16.7851C24.2738 16.6801 24.0994 16.716 23.9735 16.7446C23.7951 16.7851 20.953 18.6636 15.4472 22.3801C14.6405 22.9341 13.9098 23.204 13.2551 23.1898C12.5334 23.1742 11.1451 22.7818 10.113 22.4463C8.84709 22.0348 7.84099 21.8172 7.9286 21.1184C7.97423 20.7544 8.47549 20.3821 9.43237 20.0016Z" fill="white"/>
</g>
<defs>
<linearGradient id="paint0_linear_1_16627" x1="20.4962" y1="0.000976562" x2="20.4962" y2="40.1286" gradientUnits="userSpaceOnUse">
<stop stop-color="#2AABEE"/>
<stop offset="1" stop-color="#229ED9"/>
</linearGradient>
<clipPath id="clip0_1_16627">
<rect width="40.4275" height="40.4275" fill="white" transform="translate(0.282471 0.000976562)"/>
</clipPath>
</defs>
</svg>
