<svg width="41" height="41" viewBox="0 0 41 41" fill="none" xmlns="http://www.w3.org/2000/svg">
<path d="M0.709961 40.4285L3.55168 30.047C1.79813 27.0082 0.876724 23.5635 0.878409 20.0311C0.883462 8.98767 9.87015 0.000976562 20.9119 0.000976562C26.2702 0.00266104 31.3001 2.08973 35.0834 5.87644C38.8651 9.66314 40.9471 14.6964 40.9454 20.0496C40.9404 31.0948 31.9537 40.0815 20.9119 40.0815C17.5598 40.0798 14.2565 39.2392 11.3306 37.6423L0.709961 40.4285ZM11.8225 34.0157C14.6457 35.6917 17.3408 36.6957 20.9052 36.6973C30.0822 36.6973 37.5579 29.2284 37.563 20.0463C37.5663 10.8456 30.126 3.38678 20.9186 3.38341C11.7349 3.38341 4.26421 10.8524 4.26084 20.0328C4.25916 23.7808 5.35744 26.5871 7.20194 29.5231L5.51915 35.6681L11.8225 34.0157ZM31.0036 24.8117C30.879 24.6028 30.5454 24.4781 30.0435 24.2271C29.5432 23.9762 27.0822 22.765 26.6223 22.5983C26.1641 22.4315 25.8306 22.3473 25.4954 22.8492C25.1618 23.3495 24.2017 24.4781 23.9103 24.8117C23.6189 25.1452 23.3258 25.1873 22.8255 24.9363C22.3252 24.6853 20.7115 24.1581 18.7996 22.4517C17.3122 21.1243 16.3065 19.4853 16.0151 18.9834C15.7237 18.4831 15.9848 18.2119 16.2341 17.9626C16.4598 17.7385 16.7344 17.3781 16.9854 17.085C17.2397 16.7952 17.3223 16.5864 17.4907 16.2511C17.6575 15.9176 17.575 15.6245 17.4486 15.3735C17.3223 15.1242 16.3217 12.6598 15.9056 11.6576C15.498 10.6823 15.0853 10.8136 14.7787 10.7985L13.8186 10.7816C13.485 10.7816 12.9426 10.9063 12.4845 11.4083C12.0263 11.9102 10.7326 13.1197 10.7326 15.5841C10.7326 18.0485 12.5266 20.4286 12.7759 20.7622C13.0269 21.0957 16.3049 26.1525 21.3263 28.3204C22.5206 28.8359 23.4538 29.1441 24.1798 29.3749C25.3791 29.7556 26.4707 29.7017 27.3331 29.5737C28.295 29.4305 30.2945 28.3625 30.7122 27.1935C31.13 26.0228 31.13 25.0205 31.0036 24.8117Z" fill="#25D366"/>
</svg>
